<svg id="eUAyR7kadDq1" xmlns="http://www.w3.org/2000/svg" xmlns:xlink="http://www.w3.org/1999/xlink" viewBox="0 0 16 16" shape-rendering="geometricPrecision" text-rendering="geometricPrecision"><g><g><path d="M2.786,10.286c1.538,0,2.785,1.279,2.785,2.857C5.571,14.72,4.324,16,2.786,16C1.247,16,0,14.72,0,13.143c0-1.578,1.247-2.857,2.786-2.857ZM2.786,0C4.324,0,5.57,1.28,5.57,2.857c0,1.578-1.247,2.857-2.785,2.857s-2.785-1.279-2.785-2.857C0,1.28,1.247,0,2.786,0ZM12.814,0C14.353,0,15.6,1.28,15.6,2.857c0,1.578-1.247,2.857-2.786,2.857-1.538,0-2.785-1.279-2.785-2.857C10.029,1.28,11.276,0,12.814,0Z" fill="#f3603c" fill-rule="evenodd"/><ellipse rx="2.786" ry="2.857" transform="translate(12.814 13.257)" opacity="0.5" fill="#f3603c" fill-rule="evenodd"/></g></g></svg>
