<svg id="ekouyTspNXR1" xmlns="http://www.w3.org/2000/svg" xmlns:xlink="http://www.w3.org/1999/xlink" viewBox="0 0 146 24" shape-rendering="geometricPrecision" text-rendering="geometricPrecision"><g><path d="M40.014,16.809v-8.256c0-1.577.366-2.82,1.098-3.73.733-.91,1.65-1.365,2.75-1.365c2.158,0,3.237,1.577,3.237,4.731v8.62h3.782v-9.58c0-2.415-.5-4.22-1.503-5.417-1.002-1.197-2.433-1.795-4.294-1.795-1.222,0-2.34.234-3.352.703-1.006341.46339-1.884912,1.164531-2.56,2.043h-.066c-.98-1.831-2.62-2.746-4.922-2.746-.969,0-1.902.217-2.799.653-.911673.447278-1.714704,1.088201-2.353,1.878h-.05v-2.283h-3.782v16.527h3.782v-8.239c0-1.577.372-2.82,1.115-3.73s1.693-1.365,2.849-1.365c2.19,0,3.286,1.577,3.286,4.731v8.62h3.782Zm21.101.248c2.246,0,3.997-.827,5.252-2.482h.05v2.217h3.616v-16.527h-3.782v1.985h-.066C64.93,0.761,63.23,0.017,61.082,0.017c-2.146149-.015241-4.202774.859032-5.681,2.415-.705.75-1.26,1.66-1.668,2.73-.41261,1.099574-.619714,2.265592-.611,3.44c0,1.258.203,2.416.61,3.475.408,1.059.964,1.952,1.669,2.68.717078.736413,1.580679,1.314192,2.535,1.696c1.010274.407449,2.090692.61266,3.18.604Zm.595-3.441c-1.399,0-2.538-.466-3.419-1.398-.88-.932-1.321-2.132-1.321-3.599c0-1.555.454-2.804,1.362-3.747.909-.943,2.04-1.414,3.394-1.414c1.343,0,2.458.493,3.345,1.48.886.988,1.33,2.215,1.33,3.681c0,1.467-.455,2.667-1.363,3.599-.909.932-2.018,1.398-3.328,1.398Zm27.112,3.193v-9.745c0-2.393-.536-4.166-1.61-5.319-1.072-1.152-2.557-1.728-4.45-1.728-1.053039-.005705-2.095083.214229-3.056.645-.955928.42889-1.802656,1.068124-2.477,1.87h-.05v-2.268h-3.782v16.527h3.782v-8.304c0-1.588.388-2.823,1.164-3.706.777-.882,1.814-1.323,3.113-1.323.595,0,1.104.077,1.528.231.424.155.796.406,1.115.753.32.348.556.819.71,1.415.154.595.231,1.323.231,2.183v8.769h3.782Zm10.218.248c2.246,0,3.996-.827,5.252-2.482h.05v2.217h3.616v-16.527h-3.782v1.985h-.066c-1.255-1.489-2.956-2.233-5.103-2.233-2.146496-.015518-4.203535.858778-5.682,2.415-.704.75-1.26,1.66-1.668,2.73-.412269,1.099638-.619033,2.265654-.61,3.44c0,1.258.203,2.416.61,3.475.408,1.059.964,1.952,1.668,2.68.71737.736529,1.581322,1.314314,2.536,1.696c1.009962.40732,2.090028.612529,3.179.604Zm.594-3.441c-1.398,0-2.538-.466-3.418-1.398-.881-.932-1.322-2.132-1.322-3.599c0-1.555.455-2.804,1.363-3.747s2.04-1.414,3.394-1.414c1.343,0,2.458.493,3.344,1.48.886.988,1.33,2.215,1.33,3.681c0,1.467-.455,2.667-1.363,3.599s-2.018,1.398-3.328,1.398Zm19.07,10.125c1.2,0,2.274-.14,3.22-.422.947-.281,1.743-.673,2.387-1.175.647695-.505842,1.191647-1.131964,1.602-1.844.428773-.741209.737908-1.545432.916-2.383.188-.86.281-1.803.281-2.829v-14.823h-3.782v1.737h-.066c-.6776-.648001-1.477499-1.154524-2.353-1.49-.882549-.340967-1.820879-.514593-2.767-.512-1.508,0-2.862.358-4.062,1.075s-2.134,1.713-2.8,2.987c-.666,1.273-.999,2.705-.999,4.293c0,1.61.35,3.038,1.049,4.285.699,1.246,1.66,2.203,2.882,2.87s2.598,1.001,4.129,1.001c2.047,0,3.716-.673,5.004-2.018h.066v1.753c0,1.17-.43,2.14-1.288,2.912-.86.772-2.07,1.158-3.634,1.158-1.068,0-2.006-.132-2.816-.397-.809-.265-1.742-.678-2.799-1.24l-.892,3.341c.925.552,1.966.976,3.122,1.274s2.356.447,3.6.447Zm.132-10.72c-1.365,0-2.491-.434-3.377-1.3-.887-.865-1.33-2.026-1.33-3.482c0-1.4.435-2.542,1.305-3.425.87-.882,2.004-1.323,3.402-1.323c1.332,0,2.442.435,3.328,1.307.886.871,1.33,2.002,1.33,3.391c0,1.401-.433,2.556-1.297,3.466s-1.985,1.365-3.361,1.365Zm19.086,4.036c1.542,0,2.899-.281,4.071-.844c1.173-.562,2.133-1.323,2.882-2.283l-2.642-2.266c-1.035,1.301-2.406,1.952-4.113,1.952-1.21,0-2.237-.337-3.08-1.01-.842-.672-1.384-1.593-1.627-2.762h12.024c.066-.397.099-.9.099-1.506c0-1.599-.325-3.027-.975-4.285-.630497-1.237074-1.605332-2.265391-2.807-2.961-1.222-.717-2.632-1.075-4.228-1.075-1.093397-.00819-2.177368.20262-3.188.62-.99.414-1.844.99-2.56,1.729-.715.739-1.277,1.638-1.684,2.696-.407,1.06-.611,2.212-.611,3.458c0,1.688.369,3.185,1.106,4.492.738,1.307,1.746,2.308,3.023,3.003s2.714,1.042,4.31,1.042Zm3.815-10.274h-8.257c.264-1.059.776-1.878,1.535-2.457.76-.579,1.663-.868,2.709-.868c1.057,0,1.93.298,2.618.893.688.596,1.153,1.406,1.395,2.432Z" fill="#fff"/><g><path d="M2.786,10.286c1.538,0,2.785,1.279,2.785,2.857C5.571,14.72,4.324,16,2.786,16C1.247,16,0,14.72,0,13.143c0-1.578,1.247-2.857,2.786-2.857ZM2.786,0C4.324,0,5.57,1.28,5.57,2.857c0,1.578-1.247,2.857-2.785,2.857s-2.785-1.279-2.785-2.857C0,1.28,1.247,0,2.786,0ZM12.814,0C14.353,0,15.6,1.28,15.6,2.857c0,1.578-1.247,2.857-2.786,2.857-1.538,0-2.785-1.279-2.785-2.857C10.029,1.28,11.276,0,12.814,0Z" fill="#f3603c" fill-rule="evenodd"/><ellipse rx="2.786" ry="2.857" transform="translate(12.814 13.257)" opacity="0.5" fill="#f3603c" fill-rule="evenodd"/></g></g></svg>
